<svg xmlns="http://www.w3.org/2000/svg" viewBox="0 0 2441.07 2900.1"><defs><style>.cls-1{fill:#f15a23;}.cls-2{fill:#000072;}.cls-3{opacity:0.3;}.cls-4{fill:#262f6a;}.cls-5{opacity:0.55;}.cls-6{fill:#fff;}.cls-7{fill:#00bdff;}.cls-8{fill:#19aff9;}.cls-9{fill:#fcbc06;}.cls-10{opacity:0.7;}</style></defs><g id="Layer_2" data-name="Layer 2"><g id="Layer_1-2" data-name="Layer 1"><path class="cls-1" d="M2414.12,890.26,2342,967.73l-34.54,37.11L1236.3,2155.94a106.93,106.93,0,0,1-104.72,30.86L192.27,1948.56,65.2,1916.33c-.45-.11-.94-.23-1.39-.3-.25,0-.45-.11-.7-.17a38.56,38.56,0,0,0-43.28,23.75,81,81,0,0,1,15-30.92,210,210,0,0,1,15.57-17.94v0l1298-1291.25a122.6,122.6,0,0,1,116.71-31.94L2388,801.58C2427.57,811.59,2441.91,860.38,2414.12,890.26Z"/><path class="cls-2" d="M1158,2192.61a109.29,109.29,0,0,1-27-3.39L64.58,1918.76a9.88,9.88,0,0,0-1.12-.25l-.64-.15a36,36,0,0,0-40.66,22.16L17.4,1939a83.3,83.3,0,0,1,15.45-31.84,211.81,211.81,0,0,1,15.06-17.41v0l.74-.78,1298-1291.25a125.64,125.64,0,0,1,119.09-32.6L2388.6,799.16A56.23,56.23,0,0,1,2416,892h0L1238.13,2157.65A109.43,109.43,0,0,1,1158,2192.61Zm-1102.35-280a41,41,0,0,1,8,.79l.5.12c.6.11,1.2.24,1.74.39L1132.2,2184.37a104.39,104.39,0,0,0,102.27-30.13L2412.29,888.56A51.23,51.23,0,0,0,2387.37,804L1464.48,569.93a120.62,120.62,0,0,0-114.33,31.29L52.6,1892.05l-.37.42a211.74,211.74,0,0,0-15.39,17.72,88.45,88.45,0,0,0-8,12.41A40.91,40.91,0,0,1,55.62,1912.62Z"/><g class="cls-3"><path class="cls-4" d="M2410.91,886l-72.09,77.46-34.54,37.11L1233.09,2151.65a106.94,106.94,0,0,1-104.72,30.86L189.06,1944.27,62,1912c-.45-.11-1-.23-1.39-.29l-.7-.18a38.55,38.55,0,0,0-43.28,23.75,80.84,80.84,0,0,1,15-30.92,208.2,208.2,0,0,1,15.57-17.94v0l8-7.93,127,32.22,939.31,238.24a106.93,106.93,0,0,0,104.72-30.86L2297.37,967l34.54-37.11L2404,852.41a53,53,0,0,0,14-30A53.48,53.48,0,0,1,2410.91,886Z"/><path class="cls-2" d="M1154.75,2188.32a109.29,109.29,0,0,1-27-3.39L61.37,1914.47a9.58,9.58,0,0,0-1.13-.25l-.63-.14a36,36,0,0,0-40.67,22.15l-4.75-1.51a83.3,83.3,0,0,1,15.45-31.84,211.81,211.81,0,0,1,15.06-17.41v0l.74-.78,9-8.94,128.35,32.57,939.31,238.24a104.38,104.38,0,0,0,102.27-30.13L2402.17,850.7a50.52,50.52,0,0,0,13.38-28.54l.89-7.46,3.75,6.5a56,56,0,0,1-7.45,66.48L1234.92,2153.36A109.43,109.43,0,0,1,1154.75,2188.32ZM52.4,1908.33a41.14,41.14,0,0,1,8,.79l.5.12c.6.11,1.2.25,1.74.39L1129,2180.08A104.39,104.39,0,0,0,1231.25,2150L2409.08,884.27a51,51,0,0,0,10-54,56,56,0,0,1-13.25,23.83L1228,2119.79a109.4,109.4,0,0,1-107.16,31.57L55.94,1881.25,49,1888.18a209.92,209.92,0,0,0-15.39,17.72,88.45,88.45,0,0,0-8,12.41A40.9,40.9,0,0,1,52.4,1908.33Z"/></g><g class="cls-5"><path class="cls-6" d="M2426.63,839.78a53.18,53.18,0,0,0-12.3-4.77L1491.44,600.93a122.58,122.58,0,0,0-116.71,32L80.65,1920.26l-15.47-3.94a13.93,13.93,0,0,0-1.4-.29l-.69-.18A38.57,38.57,0,0,0,19.8,1939.6a81,81,0,0,1,15-30.92,208.2,208.2,0,0,1,15.57-17.94v0l1298-1291.25a122.59,122.59,0,0,1,116.71-31.94L2388,801.57A53.18,53.18,0,0,1,2426.63,839.78Z"/></g><path class="cls-1" d="M2406.52,1112,1228.69,2377.75a106.56,106.56,0,0,1-71.3,33.9,105.26,105.26,0,0,1-33.41-3.05L219.39,2179.16,47.63,2135.59A46.71,46.71,0,0,1,12.5,2088.8L17,1955.92a116,116,0,0,1,2.71-16.23s0,0,.05-.09a38.57,38.57,0,0,1,43.29-23.75l.69.18L87,1921.92l-4.19,122.53a41.9,41.9,0,0,0,31.68,42.08l118.85,29.84,859.44,215.69a107.12,107.12,0,0,0,104.71-30.86l1122.7-1203.1a70.76,70.76,0,0,0,19-45.79l1.33-39.1,39.93,10.13C2420,1033.35,2434.3,1082.14,2406.52,1112Z"/><path class="cls-2" d="M1150.09,2414.4a108,108,0,0,1-26.73-3.37L47,2138a49.49,49.49,0,0,1-37-49.31l4.55-132.88a119.23,119.23,0,0,1,2.7-16.44v-.8l.43-.42a40.94,40.94,0,0,1,45.89-24.77l.49.12L89.52,1920l-4.26,124.54a39.61,39.61,0,0,0,29.79,39.56l978.28,245.53a104.56,104.56,0,0,0,102.28-30.13L2318.32,1096.4a68.23,68.23,0,0,0,18.3-44.18l1.44-42.19,42.94,10.88a56.24,56.24,0,0,1,27.35,92.81h0L1230.53,2379.45a108.74,108.74,0,0,1-73,34.69C1155.07,2414.32,1152.58,2414.4,1150.09,2414.4Zm-1128-473.85a115.88,115.88,0,0,0-2.58,15.62L15,2088.88a44.45,44.45,0,0,0,33.25,44.29l1076.34,273a104.65,104.65,0,0,0,102.27-30.13L2404.69,1110.32h0a51.25,51.25,0,0,0-24.92-84.56l-36.92-9.36-1.23,36a73.13,73.13,0,0,1-19.65,47.42l-1122.7,1203.1a109.6,109.6,0,0,1-107.16,31.57L113.83,2089a44.64,44.64,0,0,1-33.57-44.58l4.12-120.52-21.21-5.4-.08-2.6-.48,2.46a35.9,35.9,0,0,0-40.48,22.2Z"/><g class="cls-3"><path class="cls-2" d="M217.63,2172a53.59,53.59,0,0,1,1.76,7.12L47.63,2135.59A46.71,46.71,0,0,1,12.5,2088.8L17,1955.92a116,116,0,0,1,2.71-16.23s0,0,.05-.09a38.57,38.57,0,0,1,43.29-23.75l.69.18L87,1921.92l-4.19,122.53a41.9,41.9,0,0,0,31.68,42.08l118.85,29.84S208.55,2145,217.63,2172Z"/></g><path class="cls-2" d="M1158,2202.61a119.24,119.24,0,0,1-29.47-3.7L62.13,1928.45c-.38,0-.82-.16-1.18-.24l-.68-.17a25.83,25.83,0,0,0-28.8,16.11,12.5,12.5,0,0,1-23.78-7.53,92.84,92.84,0,0,1,17.2-35.5,219.14,219.14,0,0,1,15.84-18.32,9.91,9.91,0,0,1,.87-1l1298-1291.25a135.66,135.66,0,0,1,128.6-35.2l922.89,234.07a66.24,66.24,0,0,1,32.22,109.32h0L1245.45,2164.46A119.42,119.42,0,0,1,1158,2202.61ZM66.4,1903.79c.67.13,1.36.29,2,.45l1066.27,270.44a94.42,94.42,0,0,0,92.48-27.25L2405,881.75a41.23,41.23,0,0,0-20-68L1462,579.63a110.55,110.55,0,0,0-104.81,28.68L59.88,1898.92c-.12.15-.26.29-.39.43-1.08,1.15-2.11,2.23-3.07,3.27a51.76,51.76,0,0,1,9.12,1ZM2414.12,890.26h0Z"/><path class="cls-2" d="M1150.4,2424.42a119.72,119.72,0,0,1-29.48-3.69l-1076.34-273A59.57,59.57,0,0,1,0,2088.38L4.57,1955.5c0-.28,0-.55.06-.83a127.18,127.18,0,0,1,3-18h0a12.85,12.85,0,0,1,.68-2,51,51,0,0,1,57.21-31.09l1.11.27,23.41,6a12.51,12.51,0,0,1,9.41,12.55l-4.19,122.53a29.56,29.56,0,0,0,22.23,29.52l978.28,245.53a94.54,94.54,0,0,0,92.52-27.24L2311,1089.58a58.13,58.13,0,0,0,15.63-37.69l1.33-39.09a12.52,12.52,0,0,1,15.57-11.7l39.93,10.13a66.24,66.24,0,0,1,32.22,109.31h0L1237.88,2386.28A119.41,119.41,0,0,1,1150.4,2424.42ZM29.55,1956.78,25,2089.23a34.4,34.4,0,0,0,25.73,34.26l1076.33,273a94.41,94.41,0,0,0,92.48-27.24L2397.39,1103.51a41.23,41.23,0,0,0-20-68l-24.9-6.31-.8,23.58a83.2,83.2,0,0,1-22.33,53.9l-1122.7,1203.1a119.48,119.48,0,0,1-116.93,34.44L111.42,2098.66A54.69,54.69,0,0,1,70.29,2044l3.85-112.47-13.42-3.42-.32-.08a25.94,25.94,0,0,0-28.71,15.54A105.76,105.76,0,0,0,29.55,1956.78Zm2377-844.75h0Z"/><g class="cls-3"><path class="cls-2" d="M2406.52,1112,1228.69,2377.75a106.56,106.56,0,0,1-71.3,33.9L1130,2334.78a106.73,106.73,0,0,0,67.49-33.58l1122.7-1203.1a70.76,70.76,0,0,0,19-45.79l1.33-39.1,39.93,10.13C2420,1033.35,2434.3,1082.14,2406.52,1112Z"/></g><path class="cls-2" d="M1131.6,2199.3a12.55,12.55,0,0,1-3.08-.38l-.57-.15L60.72,1928.15a12.5,12.5,0,0,1,4.84-24.49,25.83,25.83,0,0,1,2.83.58l1066.27,270.44a12.5,12.5,0,0,1-3.06,24.62Z"/><path class="cls-6" d="M2342,967.72l-2.89,84.59a70.76,70.76,0,0,1-19,45.79L1197.44,2301.2a107.11,107.11,0,0,1-104.71,30.86L114.44,2086.53a41.9,41.9,0,0,1-31.68-42.08L87,1921.92l1044.61,264.87a106.92,106.92,0,0,0,104.71-30.86l1071.2-1151.1Z"/><path class="cls-2" d="M1119,2337.85a109.23,109.23,0,0,1-26.86-3.37L113.83,2089a44.64,44.64,0,0,1-33.57-44.58l4.3-125.63,3,.76,1044.62,264.86a104.36,104.36,0,0,0,102.26-30.13L2344.74,961.12l-3.12,91.27a73.13,73.13,0,0,1-19.65,47.42l-1122.7,1203.1a109.83,109.83,0,0,1-62.89,33.55A111.14,111.14,0,0,1,1119,2337.85ZM89.34,1925.11l-4.08,119.43a39.61,39.61,0,0,0,29.79,39.56l978.28,245.53a104.61,104.61,0,0,0,102.28-30.13L2318.32,1096.4a68.23,68.23,0,0,0,18.3-44.18l2.66-77.9L1238.11,2157.64A109.41,109.41,0,0,1,1131,2189.21Z"/><g class="cls-3"><path class="cls-2" d="M2342,967.72l-2.89,84.59a70.76,70.76,0,0,1-19,45.79L1197.44,2301.2A106.73,106.73,0,0,1,1136,2334l2.44-71.22a34,34,0,0,0-25.76-34.18L85.22,1972.31,87,1921.92l1044.61,264.87a106.92,106.92,0,0,0,104.71-30.86l1071.2-1151.1Z"/></g><path class="cls-2" d="M1119.1,2347.86a119.23,119.23,0,0,1-29.42-3.68L111.42,2098.66A54.69,54.69,0,0,1,70.29,2044l4.19-122.54A12.49,12.49,0,0,1,90,1909.81l1044.62,264.87a94.4,94.4,0,0,0,92.48-27.25L2332.88,959.21a12.5,12.5,0,0,1,21.65,8.95l-2.89,84.58a83.2,83.2,0,0,1-22.33,53.9l-1122.7,1203.1A119.47,119.47,0,0,1,1119.1,2347.86Zm-1020.16-410-3.66,107a29.56,29.56,0,0,0,22.23,29.52l978.28,245.53a94.54,94.54,0,0,0,92.52-27.24L2311,1089.58a58.13,58.13,0,0,0,15.63-37.69l1.74-51.15-11.74,12.61L1245.45,2164.46a119.36,119.36,0,0,1-117,34.45Z"/><path class="cls-7" d="M135.13,2031.06c-52.12,46.6-73.81,113.1-70.12,215l47.64-39.66,36.8,57.56c7.29-92.37,27-163.15,85.76-204.39Z"/><g class="cls-5"><path class="cls-6" d="M239.76,2061.4l-.67.48L158.62,2039c-48.35,43.24-70.53,103.64-70.55,193.48l-18.53,15.43c-3.68-101.87,18-168.4,70.13-215Z"/></g><path class="cls-2" d="M149.45,2276.46a12.5,12.5,0,0,1-10.53-5.77l-29.17-45.62L73,2255.66a12.5,12.5,0,0,1-20.49-9.16c-3.84-106.07,19.07-175.39,74.28-224.76a12.46,12.46,0,0,1,11.76-2.7l100.08,28.49a12.51,12.51,0,0,1,3.76,22.26c-48.29,33.9-72.36,92.26-80.48,195.15a12.51,12.51,0,0,1-9.44,11.14A12,12,0,0,1,149.45,2276.46Zm-36.8-82.57a13.64,13.64,0,0,1,1.91.14,12.56,12.56,0,0,1,8.62,5.62l17.43,27.26c7.53-59.73,24.11-120.17,68.18-161.88l-70.32-20c-41.25,39.62-60.59,94.42-61.33,174.68l27.51-22.91A12.5,12.5,0,0,1,112.65,2193.89Z"/><g class="cls-3"><ellipse class="cls-2" cx="1179.4" cy="2805.06" rx="771.08" ry="95.04"/></g><path class="cls-8" d="M676.86,155.71l416.76,1532.57-10.44,210.42c-1.3,25.83-34.81,35-49,13.34L918.62,1735.91,501.87,203.33A40,40,0,0,1,530,154.17l97.73-26.6A40,40,0,0,1,676.86,155.71Z"/><rect class="cls-9" x="562.26" y="387.24" width="181.36" height="52.16" transform="translate(-85.63 185.98) rotate(-15.23)"/><g class="cls-3"><path class="cls-2" d="M676.86,155.71l416.76,1532.57-10.44,210.42c-1.22,24.73-32,34.14-47,16,.18-1,.26-2.14.34-3.24L1046.94,1701,630.18,168.41A40,40,0,0,0,581,140.28l46.68-12.71A40,40,0,0,1,676.86,155.71Z"/></g><path class="cls-9" d="M1093.62,1688.28l-10.44,210.42a26.57,26.57,0,0,1-4.42,13.66c-9.79,14.61-33.28,16.86-44.58-.32L918.62,1735.91Z"/><g class="cls-10"><path class="cls-6" d="M1076.46,1915.29c-10.81,11.92-31.79,12.7-42.28-3.25L918.62,1735.91,501.87,203.33A40,40,0,0,1,530,154.17l28.08-7.64A40,40,0,0,0,530,195.69L946.71,1728.27l115.55,176.12A26,26,0,0,0,1076.46,1915.29Z"/></g><path class="cls-2" d="M1056.18,1935.49a37.39,37.39,0,0,1-31.48-17.24L909.15,1742.13a11.13,11.13,0,0,1-1.46-3.24L490.93,206.32A51.47,51.47,0,0,1,527,143.23l97.7-26.59a51.37,51.37,0,0,1,63.07,36.11l416.76,1532.56a11.39,11.39,0,0,1,.38,3.54l-10.44,210.41a37.49,37.49,0,0,1-28,34.84A39.16,39.16,0,0,1,1056.18,1935.49ZM929.09,1731.2l114.57,174.62a15.37,15.37,0,0,0,28.2-7.68l10.35-208.62L665.93,158.69a28.71,28.71,0,0,0-35.25-20.17L533,165.11a28.76,28.76,0,0,0-20.17,35.26Z"/><path class="cls-9" d="M525.48,19.81H599.9a24.37,24.37,0,0,1,24.37,24.37V143a0,0,0,0,1,0,0H501.1a0,0,0,0,1,0,0V44.19a24.37,24.37,0,0,1,24.37-24.37Z" transform="translate(-1.63 150.63) rotate(-15.23)"/><g class="cls-3"><path class="cls-2" d="M612.33,29.34l25.93,95.36-32.81,8.93L579.52,38.27a24.37,24.37,0,0,0-29.9-17.16l32.82-8.93A24.36,24.36,0,0,1,612.33,29.34Z"/></g><g class="cls-10"><path class="cls-6" d="M533.31,25.55a24.37,24.37,0,0,0-17.09,29.94l25.93,95.37L519.45,157,493.51,61.67A24.38,24.38,0,0,1,510.6,31.73Z"/></g><path class="cls-2" d="M519.43,168.38A11.32,11.32,0,0,1,508.49,160L482.55,64.63a35.76,35.76,0,0,1,25.08-43.82L579.44,1.26h0a35.74,35.74,0,0,1,43.85,25.09l25.93,95.37a11.34,11.34,0,0,1-8,13.92L522.41,168A11.67,11.67,0,0,1,519.43,168.38Zm66-145.24L513.59,42.69a13,13,0,0,0-9.16,16l23,84.44,97-26.39-23-84.44a13.06,13.06,0,0,0-16-9.16Z"/><path class="cls-9" d="M733.59,364.34a102.77,102.77,0,0,1,126.16,72.23l80.14,294.68a49.9,49.9,0,0,1-35,61.24l-10.06-37a42.14,42.14,0,0,1-22.12-81.32L811.83,450.41a52.9,52.9,0,0,0-64.94-37.18h0l-13.3-48.89Z"/><g class="cls-10"><path class="cls-6" d="M862.77,720.51a42.14,42.14,0,0,0,51.7,29.6l8.93,32.82a49.64,49.64,0,0,1-18.55,9.56l-10.06-37a42.14,42.14,0,0,1-22.12-81.32L811.83,450.41a52.87,52.87,0,0,0-64.94-37.18l-13.3-48.89A101.59,101.59,0,0,1,753.82,361l12.76,46.92a52.88,52.88,0,0,1,64.94,37.18l60.84,223.74A42.14,42.14,0,0,0,862.77,720.51Z"/></g><path class="cls-2" d="M572.29,473.64a11.34,11.34,0,0,1-10.94-8.37l-13.68-50.33a11.32,11.32,0,0,1,8-13.91l175-47.63a11.34,11.34,0,0,1,13.92,8l13.69,50.33a11.33,11.33,0,0,1-8,13.91l-175,47.63A11.2,11.2,0,0,1,572.29,473.64Zm.23-53.71,7.73,28.45,153.11-41.67-7.73-28.45Z"/><path class="cls-2" d="M904.85,803.83a11.32,11.32,0,0,1-10.93-8.37l-7.42-27.24a53.49,53.49,0,0,1-27.43-100.87l-58.18-214a41.55,41.55,0,0,0-51-29.21,11.34,11.34,0,0,1-13.92-8l-13.29-48.88a11.33,11.33,0,0,1,8-13.92,114.12,114.12,0,0,1,140.08,80.19l80.13,294.68a61.29,61.29,0,0,1-43,75.16A11.2,11.2,0,0,1,904.85,803.83Zm-10.07-59.7a11.35,11.35,0,0,1,10.94,8.36l6.65,24.44A38.64,38.64,0,0,0,929,734.23L848.81,439.54A91.45,91.45,0,0,0,747.69,373l7.42,27.3a64.27,64.27,0,0,1,67.66,47.16l60.84,223.74a11.33,11.33,0,0,1-8,13.91,30.8,30.8,0,1,0,16.16,59.44A11.59,11.59,0,0,1,894.78,744.13Z"/><path class="cls-2" d="M918.62,1747.25a11.34,11.34,0,0,1-3-22.28l175-47.63a11.34,11.34,0,0,1,6,21.88l-175,47.63A11.37,11.37,0,0,1,918.62,1747.25Z"/><path class="cls-2" d="M900.77,1679.33a9.07,9.07,0,0,1-2.38-17.82l175-47.63a9.07,9.07,0,1,1,4.77,17.51l-175,47.62A8.91,8.91,0,0,1,900.77,1679.33Z"/><path class="cls-2" d="M882.91,1613.68a9.07,9.07,0,0,1-2.37-17.82l175-47.63a9.07,9.07,0,0,1,4.76,17.51l-175,47.62A8.93,8.93,0,0,1,882.91,1613.68Z"/><path class="cls-2" d="M865.06,1548a9.07,9.07,0,0,1-2.37-17.82l175-47.63a9.07,9.07,0,0,1,4.76,17.51l-175,47.62A9,9,0,0,1,865.06,1548Z"/><path class="cls-2" d="M847.21,1482.38a9.07,9.07,0,0,1-2.38-17.82l175-47.63a9.07,9.07,0,1,1,4.77,17.51l-175,47.62A9,9,0,0,1,847.21,1482.38Z"/><path class="cls-2" d="M829.36,1416.73a9.07,9.07,0,0,1-2.38-17.82l175-47.63a9.07,9.07,0,1,1,4.77,17.51l-175,47.62A9,9,0,0,1,829.36,1416.73Z"/><path class="cls-2" d="M811.5,1351.08a9.07,9.07,0,0,1-2.37-17.82l175-47.63a9.07,9.07,0,0,1,4.77,17.51l-175,47.62A8.93,8.93,0,0,1,811.5,1351.08Z"/><g class="cls-3"><path class="cls-2" d="M1093.62,1688.28l-10.44,210.42a26.57,26.57,0,0,1-4.42,13.66c-10.31,2.67-17,4.35-17,4.35L1046.94,1701Z"/></g></g></g></svg>