<svg xmlns="http://www.w3.org/2000/svg" viewBox="0 0 373.31 268.48"><defs><style>.cls-1{fill:#d8dce5;}.cls-2{fill:#a6aaad;}.cls-3{fill:#f0f0f0;}.cls-4,.cls-9{fill:#fff;}.cls-5,.cls-6{fill:#6695ff;}.cls-6{font-size:26.08px;}.cls-6,.cls-9{font-family:Kanit-Bold, Kanit Bold;font-weight:700;}.cls-7{fill:#455a64;}.cls-8{fill:#afafaf;}.cls-9{font-size:14.31px;}.cls-10{letter-spacing:-0.04em;}.cls-11{fill:#dd8762;}.cls-12{fill:#9fc2ff;}.cls-13{fill:#263238;}.cls-14{fill:#ffbe9d;}.cls-15{fill:#3362cc;}.cls-16{fill:#eb996e;}.cls-17{fill:#e0e0e0;}.cls-18{fill:#244a96;}.cls-19{fill:#8cb0ff;}.cls-20{fill:#355eaf;}</style></defs><g id="Layer_2" data-name="Layer 2"><g id="OBJECTS"><path class="cls-1" d="M23.08,243.85S-1,211.44,7.3,168.25c8.89-46.18,66.49-52.49,95-97s76.06-61.7,125.56-53.59c60.84,10,68,92.22,89.89,113.79s59.21,77,15.84,112.44Z"/><path class="cls-2" d="M332.17,244.35H24.11a1.28,1.28,0,0,1-1.05-.54l-.33-.46H334.14l-.68.54A2,2,0,0,1,332.17,244.35Z"/><rect class="cls-3" y="24.16" width="168.41" height="243.26" rx="5"/><rect class="cls-4" x="8.71" y="65.65" width="93.24" height="135.57"/><path class="cls-5" d="M163.41,24.16H5a5,5,0,0,0-5,5V57.93H168.41V29.16A5,5,0,0,0,163.41,24.16Z"/><text class="cls-6" transform="translate(18.64 94.27)">T</text><rect class="cls-7" x="37.08" y="79" width="55.04" height="2.8"/><rect class="cls-7" x="37.08" y="84.76" width="37.08" height="2.8"/><rect class="cls-7" x="37.08" y="90.79" width="55.04" height="2.8"/><rect class="cls-7" x="18.54" y="96.85" width="73.59" height="2.8"/><rect class="cls-7" x="18.54" y="102.81" width="62.77" height="2.8"/><rect class="cls-7" x="18.54" y="108.77" width="68.69" height="2.8"/><rect class="cls-7" x="18.54" y="151.5" width="73.59" height="2.8"/><rect class="cls-7" x="18.54" y="157.47" width="62.77" height="2.8"/><rect class="cls-7" x="18.54" y="163.43" width="68.69" height="2.8"/><rect class="cls-7" x="18.54" y="175.1" width="62.77" height="2.8"/><rect class="cls-7" x="18.54" y="181.06" width="68.69" height="2.8"/><rect class="cls-5" x="18.63" y="115.72" width="73.49" height="31.13"/><rect class="cls-5" x="107.96" y="65.65" width="53.77" height="13.36"/><rect class="cls-5" x="107.96" y="165.15" width="53.77" height="13.36"/><rect class="cls-5" x="8.71" y="206.8" width="153.03" height="13.36"/><rect class="cls-8" x="107.96" y="81.88" width="53.77" height="79.39"/><path class="cls-8" d="M8.71,220.16h153a0,0,0,0,1,0,0v27.51a8.9,8.9,0,0,1-8.9,8.9H17.61a8.9,8.9,0,0,1-8.9-8.9V220.16A0,0,0,0,1,8.71,220.16Z"/><text class="cls-9" transform="translate(13.08 46.63)">B<tspan class="cls-10" x="7.75" y="0">L</tspan><tspan x="13.95" y="0">OG</tspan></text><path class="cls-11" d="M358.14,114.37v-2.7c1.21-.25,3.49-.87,3.19-1.8-.39-1.27-3.16-.93-3.16-.93s3.63-.41,3.11-1.92c-.36-1.06-2.12-1.27-3.14-1.31v-.34c2.46-.43,3.21-1.93,2.79-3s-2.79-.86-2.79-.86-3,12.22-3,12.54,1.71,4.39,3,4.18,4-1.93,2.9-3.43S358.14,114.37,358.14,114.37Z"/><path class="cls-7" d="M342.42,128a.63.63,0,0,0,.62.63h14a1.42,1.42,0,0,0,1.43-1.4l.32-34.72a2,2,0,0,0-.91-1.71h0a.58.58,0,0,0-.4-.1l-13.78,1.42a.63.63,0,0,0-.55.61Z"/><path class="cls-12" d="M355.52,94v31.36a.63.63,0,0,1-.64.64l-9.84-.12a.64.64,0,0,1-.64-.64l.32-30.48a.64.64,0,0,1,.57-.63l9.52-.76A.63.63,0,0,1,355.52,94Z"/><path class="cls-13" d="M357.86,90.82a.58.58,0,0,0-.4-.1h-.13l-.4,37.92H357a1.42,1.42,0,0,0,1.43-1.4l.32-34.72A2,2,0,0,0,357.86,90.82Z"/><path class="cls-13" d="M345.5,93.06a.45.45,0,0,1-.4.49.5.5,0,0,1,0-1A.45.45,0,0,1,345.5,93.06Z"/><path class="cls-13" d="M347.22,93.22a.38.38,0,0,1,0-.75L352.7,92a.38.38,0,0,1,.06.75l-5.51.46Z"/><path class="cls-14" d="M345.48,128.65c1.68-3.26,1.14-6.52,1.2-8.16s3.16-5.43,3.56-8.95-1.71-5-2.92-2.72a47.29,47.29,0,0,1-4.43,6.14V104.49a16,16,0,0,1-1.77,1.7,12.1,12.1,0,0,0-4.38,9.17c.1,5.11-1,15.2-1.9,17.92a15.65,15.65,0,0,1-2.51,4.63l9,4.43a31.63,31.63,0,0,0,5.37-3.12c1.47-1.31,2.15-6.65,2.15-6.65l1.46-3.92Z"/><polygon class="cls-11" points="350.29 128.65 345.48 128.65 349.52 130.72 350.29 128.65"/><path class="cls-11" d="M340.57,120.75a6.63,6.63,0,0,1,.44-3.18,5.86,5.86,0,0,1,1.88-2.61c-.4,1-.82,1.92-1.18,2.88S341,119.75,340.57,120.75Z"/><path class="cls-11" d="M346.71,122.23a9.17,9.17,0,0,1-.33,5.57,11.31,11.31,0,0,1-1.29,2.52,11,11,0,0,1-1.87,2.09c.47-.81.95-1.59,1.36-2.39a21.65,21.65,0,0,0,1.1-2.47,18.23,18.23,0,0,0,.72-2.6A16.3,16.3,0,0,0,346.71,122.23Z"/><path class="cls-15" d="M345.1,142.93l-11.22-6.09a1.67,1.67,0,0,0-2.17.54l-16,23.7c-1.37,2.13-2,2.4-4.12,1l-16.43-8.36c-10-4.64-16.69-9.19-26.44-9.19H257s-.52,0-1.46,0a45,45,0,0,0-41.85,31.23l-20.68,64.07h17.84l21.74-62.11L232,239.85h51.67V172.72l13.38,5.88c8.42,4.39,21.75,9.67,29-3.06.31-.56.63-1.11,1-1.64l18.62-28.61A1.66,1.66,0,0,0,345.1,142.93Z"/><path class="cls-16" d="M241.63,126.36v21.57h0a15.4,15.4,0,0,0,30.78,0h0V126.36Z"/><path class="cls-13" d="M220.74,102.62s-6.44-6.93-6.44-25.4,15.88-31,30.48-32.18,17-6.85,20.25-4.17-6.37,8.63-6.37,8.63,27.51-10.42,30.79-6.85-10.72,8.64-10.72,8.64,16.76,4.28,19.74,13.21-4.85,9.23-4.85,9.23,5.52,14.27-1.41,33.66c-7.54,21.09-55.19,23.43-56.08,22.83S220.74,102.62,220.74,102.62Z"/><path class="cls-14" d="M288.71,98.25h-.08c-.05,1-.09,1.55-.09,1.55l-1.25,10a1.5,1.5,0,0,1-2.81.54c-1.69-3.18-3.28-8.92-.91-17.9a22.7,22.7,0,0,1-2.9-7.07l-.35-1.52c-6.75,1.75-7.07,0-11.56-2,0,0-.08,0-.05,0,1.68,1.51,6.22,6.06,3,8.58-3.58,2.77-15.19-6.64-17.45-8.21a.11.11,0,0,0-.17.13c.53,1.42,2.16,6.35-.21,7.19-3.65,1.28-10.33-8.8-12.22-11.82a.18.18,0,0,0-.32.12c.37,2,.89,6.48-1.62,7.58-2.35,1-4.91-3.89-6.15-6.69a.48.48,0,0,0-.91.15A37.63,37.63,0,0,1,229,90.6c3.13,10.06,1.44,16.38-.37,19.78a1.5,1.5,0,0,1-2.81-.54l-1.25-10s0-.59-.09-1.55a11.66,11.66,0,0,0,.16,23.32l.42,0c2.63,15.07,15.77,27.53,31.59,27.53s29-12.46,31.59-27.53l.49,0a11.67,11.67,0,0,0,0-23.33Z"/><path class="cls-13" d="M246.05,124.78a25.62,25.62,0,0,0,6.1,4.5,12.82,12.82,0,0,0,3.47,1.18,18.3,18.3,0,0,0,3.82.27,8.26,8.26,0,0,1-3.94.82,9.45,9.45,0,0,1-4-1,11.88,11.88,0,0,1-3.27-2.42A10.46,10.46,0,0,1,246.05,124.78Z"/><path class="cls-13" d="M242.51,106.58a2.73,2.73,0,1,1-2.73-2.73A2.73,2.73,0,0,1,242.51,106.58Z"/><path class="cls-13" d="M237.06,103.85a3.52,3.52,0,0,1,1.6-3A6.35,6.35,0,0,1,242,99.75a5.72,5.72,0,0,1,1.82.18,5,5,0,0,1,1.67.84,4,4,0,0,1,1.57,3.08,7,7,0,0,0-2.37-1.81,5.88,5.88,0,0,0-2.62-.42,8.61,8.61,0,0,0-2.75.44A4.6,4.6,0,0,0,237.06,103.85Z"/><path class="cls-13" d="M235.67,97.36a53.33,53.33,0,0,1,10.61-.71c.62,0,1-.48.71-.87-.78-1-2.53-2.39-6-2.16-4,.26-5.55,1.83-6.18,2.93C234.51,97,235,97.48,235.67,97.36Z"/><path class="cls-13" d="M265.76,106.58a2.73,2.73,0,1,0,2.73-2.73A2.73,2.73,0,0,0,265.76,106.58Z"/><path class="cls-13" d="M275.81,103.85a3.52,3.52,0,0,0-1.6-3,6.36,6.36,0,0,0-3.39-1.06,5.66,5.66,0,0,0-1.81.18,5,5,0,0,0-1.68.84,4,4,0,0,0-1.56,3.08,7,7,0,0,1,2.37-1.81,5.86,5.86,0,0,1,2.62-.42,8.61,8.61,0,0,1,2.75.44A4.6,4.6,0,0,1,275.81,103.85Z"/><path class="cls-13" d="M276,97.36a53.33,53.33,0,0,0-10.61-.71c-.61,0-1-.48-.71-.87.79-1,2.54-2.39,6-2.16,4,.26,5.56,1.83,6.19,2.93C277.19,97,276.66,97.48,276,97.36Z"/><path class="cls-13" d="M257.32,104.51c1,2,1.81,4.15,2.6,6.26s1.52,4.24,2.23,6.38l.5,1.61a3.33,3.33,0,0,1,0,2.07,3.25,3.25,0,0,1-3.15,2.25c-2.27-.1-4.51-.25-6.76-.55,2.24-.29,4.51-.44,6.75-.55a2.11,2.11,0,0,0,1.85-2.8l-.54-1.6c-.68-2.15-1.34-4.3-1.93-6.48S257.74,106.74,257.32,104.51Z"/><path class="cls-11" d="M221.84,103a8.89,8.89,0,0,0-3.8,2.89,7.26,7.26,0,0,0-1.33,4.4,7.46,7.46,0,0,0,1.26,4.42,7.55,7.55,0,0,0,3.87,2.73,6.55,6.55,0,0,1-4.45-2.28,7.5,7.5,0,0,1-1.62-4.87,7.28,7.28,0,0,1,1.7-4.85A7.41,7.41,0,0,1,221.84,103Z"/><path class="cls-11" d="M291,117.41a8.82,8.82,0,0,0,3.81-2.89,7.29,7.29,0,0,0,1.33-4.39A7,7,0,0,0,291,103a6.6,6.6,0,0,1,4.45,2.29,7.39,7.39,0,0,1,1.62,4.87,7.14,7.14,0,0,1-6.07,7.28Z"/><path class="cls-7" d="M255.74,83.4c1.6,1.07,3.2,2.15,4.86,3.12a47.91,47.91,0,0,0,5,2.67,17.43,17.43,0,0,0,2.62.93,4.92,4.92,0,0,0,2.48.1,1.82,1.82,0,0,0,.84-.55,1.84,1.84,0,0,0,.38-.94,4.48,4.48,0,0,0-.64-2.34A22,22,0,0,0,268,81.92c-1.26-1.42-2.64-2.74-4-4.06-2.8-2.62-5.7-5.16-8.66-7.65A77.35,77.35,0,0,1,264.76,77a52,52,0,0,1,4.29,4,22.21,22.21,0,0,1,3.61,4.75,5.71,5.71,0,0,1,.76,3.19,3.24,3.24,0,0,1-.71,1.68,3.12,3.12,0,0,1-1.56,1,6.28,6.28,0,0,1-3.22-.19,15.89,15.89,0,0,1-2.78-1.14A43.81,43.81,0,0,1,255.74,83.4Z"/><path class="cls-7" d="M268.46,81.36a17.85,17.85,0,0,0,3.82,1.79,12.32,12.32,0,0,0,4,.65,12.63,12.63,0,0,0,2-.14l1-.16c.33-.1.66-.19,1-.27a5.15,5.15,0,0,0,1-.31l1-.35c.66-.25,1.3-.57,2-.81a19.12,19.12,0,0,1-1.65,1.46,12.81,12.81,0,0,1-1.94,1.11,10.26,10.26,0,0,1-4.42,1,9.83,9.83,0,0,1-4.41-1.07A8.79,8.79,0,0,1,268.46,81.36Z"/><path class="cls-7" d="M248.89,74.61a17.83,17.83,0,0,1,2.91,3,22.14,22.14,0,0,1,2.28,3.5,13.17,13.17,0,0,1,1.36,4,6.14,6.14,0,0,1,0,2.18,3.47,3.47,0,0,1-1,1.92,5.86,5.86,0,0,0-.17-3.84,24.64,24.64,0,0,0-1.56-3.6C251.54,79.4,250.13,77.11,248.89,74.61Z"/><path class="cls-7" d="M268.06,50a25.53,25.53,0,0,1,3.61-.14c1.2.06,2.41.17,3.61.34A37.58,37.58,0,0,1,288.9,55c1.06.59,2.05,1.29,3,2s1.89,1.5,2.81,2.28a71.52,71.52,0,0,0-6.21-3.57A55,55,0,0,0,275.14,51,47.64,47.64,0,0,0,268.06,50Z"/><path class="cls-7" d="M293.62,73.73a14.44,14.44,0,0,1-5.41.93,25.15,25.15,0,0,1-5.48-.61,29.62,29.62,0,0,1-5.23-1.71c-.84-.35-1.65-.79-2.46-1.2s-1.57-.94-2.31-1.46c.89.22,1.74.51,2.6.78l2.57.78c.87.22,1.7.52,2.57.71s1.72.45,2.58.63a50.87,50.87,0,0,0,5.22.92A32.75,32.75,0,0,0,293.62,73.73Z"/><path class="cls-7" d="M237.05,84.57a11.58,11.58,0,0,1-2.7-3.13,21.31,21.31,0,0,1-1.81-3.72,26.33,26.33,0,0,1-1.15-4c-.14-.67-.24-1.35-.34-2s-.13-1.36-.15-2c.44,1.3.84,2.6,1.24,3.88s.84,2.56,1.33,3.81,1,2.49,1.56,3.7A23.15,23.15,0,0,0,237.05,84.57Z"/><path class="cls-7" d="M313.09,268.48H197.56a7.27,7.27,0,0,1-7.22-6.47l-6.41-58.6a7.26,7.26,0,0,1,7.22-8H319.5a7.25,7.25,0,0,1,7.21,8L320.3,262A7.26,7.26,0,0,1,313.09,268.48Z"/><path class="cls-13" d="M326.45,200.56a7.25,7.25,0,0,0-6.95-5.2H191.15a7.25,7.25,0,0,0-7,5.2Z"/><path class="cls-17" d="M261.63,235.23a6.31,6.31,0,1,1-6.31-6.3A6.31,6.31,0,0,1,261.63,235.23Z"/><rect class="cls-5" x="181.45" width="64.6" height="36.65"/><circle class="cls-18" cx="213.75" cy="17.81" r="9.67" transform="translate(10.55 86.48) rotate(-23.43)"/><path class="cls-3" d="M212,15.74v4.51a1,1,0,0,0,1.53.76l3-2.3a1,1,0,0,0,0-1.52l-3-2.22A1,1,0,0,0,212,15.74Z"/><path class="cls-18" d="M239.69,32.24H185.91a.75.75,0,0,1-.74-.75h0a.74.74,0,0,1,.74-.74h53.78a.75.75,0,0,1,.75.74h0A.76.76,0,0,1,239.69,32.24Z"/><path class="cls-3" d="M239.69,30.75H202.21v1.49h37.48a.76.76,0,0,0,.75-.75h0A.75.75,0,0,0,239.69,30.75Z"/><path class="cls-18" d="M202.13,30.75H185.91a.74.74,0,0,0-.74.74h0a.75.75,0,0,0,.74.75h16.22Z"/><path class="cls-18" d="M204.08,31.49a1.85,1.85,0,1,1-1.85-1.85A1.85,1.85,0,0,1,204.08,31.49Z"/><path class="cls-19" d="M203.11,31.49a.88.88,0,1,1-.88-.88A.88.88,0,0,1,203.11,31.49Z"/><path class="cls-5" d="M294.08,225.44v21a3.29,3.29,0,0,0,3.29,3.29h38.25a3.27,3.27,0,0,1,2,.68l8.41,6.42a3.29,3.29,0,0,0,5.29-2.61V225.44a3.29,3.29,0,0,0-3.3-3.29H297.37A3.29,3.29,0,0,0,294.08,225.44Z"/><circle class="cls-3" cx="313.92" cy="236.37" r="2.19"/><path class="cls-3" d="M325.64,236.37a2.2,2.2,0,1,1-2.19-2.19A2.19,2.19,0,0,1,325.64,236.37Z"/><path class="cls-3" d="M335.16,236.37a2.19,2.19,0,1,1-2.19-2.19A2.19,2.19,0,0,1,335.16,236.37Z"/><path class="cls-5" d="M373.31,59.6V81.44a2.89,2.89,0,0,1-2.89,2.89H327.05a2.94,2.94,0,0,0-1.76.59l-9.15,7a2.89,2.89,0,0,1-4.65-2.3v-30a2.9,2.9,0,0,1,2.89-2.89h56A2.89,2.89,0,0,1,373.31,59.6Z"/><path class="cls-20" d="M328.38,70.42a5.68,5.68,0,1,1-5.68-5.68A5.68,5.68,0,0,1,328.38,70.42Z"/><path class="cls-4" d="M332.49,68.6l.93-2.76h1.52l-.75,2.76Zm2.12,0,.94-2.76h1.51l-.74,2.76Z"/><path class="cls-4" d="M360.83,75.54l.94-2.76h1.51l-.74,2.76Zm2.13,0,.93-2.76h1.51l-.74,2.76Z"/><rect class="cls-18" x="338.11" y="66.79" width="29.31" height="1.31"/><rect class="cls-18" x="332.49" y="69.97" width="33.3" height="1.31"/><rect class="cls-18" x="332.49" y="73.14" width="27.45" height="1.31"/><rect class="cls-5" x="120.98" y="109.62" width="71.61" height="40.63"/><rect class="cls-20" x="124.36" y="113.26" width="64.3" height="33.17"/><path class="cls-18" d="M124.36,146.43,142.58,122a5,5,0,0,1,8,0l13.37,17.56,7.37-6.92a5,5,0,0,1,7.39.63l10,13.22Z"/><path class="cls-4" d="M169.81,123.43a5.31,5.31,0,1,1-5.31-5.3A5.31,5.31,0,0,1,169.81,123.43Z"/></g></g></svg>